# xmcd
#
# Track frame offsets: 
#        150
#        19654
#        39329
#        59696
#        79746
#        96945
#        119054
#        136744
#        155137
#        170587
#        189554
#        204604
#
# Disc length: 3134 seconds
#
# Revision: 0
# Processed by: cddbd v1.5.2PL0 Copyright (c) Steve Scherf et al.
# Submitted via: ExactAudioCopy v0.95a5
#
DISCID=a90c3c0c
DTITLE=Alaíde Costa and João Carlos Assis Brasil - Voz and Piano
DYEAR=1900
DGENRE=
TTITLE0=Norturno
TTITLE1=Janelas abertas
TTITLE2=Nova ilusão
TTITLE3=Essa mulher
TTITLE4=Pois é
TTITLE5=Ocultei
TTITLE6=Nunca
TTITLE7=Quando tu passas por mim
TTITLE8=Teus ciúmes
TTITLE9=Amargura
TTITLE10=Bom dia
TTITLE11=Estrada branca
EXTD=
EXTT0=
EXTT1=
EXTT2=
EXTT3=
EXTT4=
EXTT5=
EXTT6=
EXTT7=
EXTT8=
EXTT9=
EXTT10=
EXTT11=
PLAYORDER=
